ffmpeg started on 2016-12-07 at 06:04:15
Report written to "Output/x264/results/ffmpeg/sintelslow2000k.log"
Command line:
Tools/ffmpeg/ffmpeg -benchmark -y -i Input/y4m/sintel.y4m -c:v libx264 -preset slow -b:v 2000k -an Output/x264/encoded/sintelslow2000k.mkv
ffmpeg version N-82227-gdb23fde Copyright (c) 2000-2016 the FFmpeg developers
  built with gcc 5.4.0 (Ubuntu 5.4.0-6ubuntu1~16.04.2) 20160609
  configuration: --prefix=/home/jaroslav/ffmpeg_build --pkg-config-flags=--static --extra-cflags=-I/home/jaroslav/ffmpeg_build/include --extra-ldflags=-L/home/jaroslav/ffmpeg_build/lib --bindir=/home/jaroslav/bin --enable-gpl --enable-libass --enable-libfdk-aac --enable-libfreetype --enable-libmp3lame --enable-libopus --enable-libtheora --enable-libvorbis --enable-libvpx --enable-libx264 --enable-libx265 --enable-nvenc --enable-libmfx --enable-libxvid --enable-libgsm --enable-libopencore-amrnb --enable-version3 --enable-nonfree
  libavutil      55. 35.100 / 55. 35.100
  libavcodec     57. 66.101 / 57. 66.101
  libavformat    57. 57.100 / 57. 57.100
  libavdevice    57.  2.100 / 57.  2.100
  libavfilter     6. 66.100 /  6. 66.100
  libswscale      4.  3.100 /  4.  3.100
  libswresample   2.  4.100 /  2.  4.100
  libpostproc    54.  2.100 / 54.  2.100
Input #0, yuv4mpegpipe, from 'Input/y4m/sintel.y4m':
  Duration: 00:00:20.83, start: 0.000000, bitrate: 2057307 kb/s
    Stream #0:0: Video: rawvideo (I420 / 0x30323449), yuv420p(progressive), 4096x1744, SAR 1:1 DAR 256:109, 24 fps, 24 tbr, 24 tbn, 24 tbc
[libx264 @ 0x3bdf120] using SAR=1/1
[libx264 @ 0x3bdf120] using cpu capabilities: MMX2 SSE2Fast SSSE3 SSE4.2 AVX FMA3 AVX2 LZCNT BMI2
[libx264 @ 0x3bdf120] profile High, level 5.1
[libx264 @ 0x3bdf120] 264 - core 148 - H.264/MPEG-4 AVC codec - Copyleft 2003-2016 - http://www.videolan.org/x264.html - options: cabac=1 ref=5 deblock=1:0:0 analyse=0x3:0x113 me=hex subme=8 psy=1 psy_rd=1.00:0.00 mixed_ref=1 me_range=16 chroma_me=1 trellis=2 8x8dct=1 cqm=0 deadzone=21,11 fast_pskip=1 chroma_qp_offset=-2 threads=6 lookahead_threads=1 sliced_threads=0 nr=0 decimate=1 interlaced=0 bluray_compat=0 constrained_intra=0 bframes=3 b_pyramid=2 b_adapt=1 b_bias=0 direct=3 weightb=1 open_gop=0 weightp=2 keyint=250 keyint_min=24 scenecut=40 intra_refresh=0 rc_lookahead=50 rc=abr mbtree=1 bitrate=2000 ratetol=1.0 qcomp=0.60 qpmin=0 qpmax=69 qpstep=4 ip_ratio=1.40 aq=1:1.00
Output #0, matroska, to 'Output/x264/encoded/sintelslow2000k.mkv':
  Metadata:
    encoder         : Lavf57.57.100
    Stream #0:0: Video: h264 (libx264) (H264 / 0x34363248), yuv420p, 4096x1744 [SAR 1:1 DAR 256:109], q=-1--1, 2000 kb/s, 24 fps, 1k tbn, 24 tbc
    Metadata:
      encoder         : Lavc57.66.101 libx264
    Side data:
      cpb: bitrate max/min/avg: 0/0/2000000 buffer size: 0 vbv_delay: -1
Stream mapping:
  Stream #0:0 -> #0:0 (rawvideo (native) -> h264 (libx264))
Press [q] to stop, [?] for help
frame=    9 fps=0.0 q=0.0 size=       0kB time=00:00:00.00 bitrate=N/A speed=   0x    frame=   18 fps= 17 q=0.0 size=       0kB time=00:00:00.00 bitrate=N/A speed=   0x    frame=   27 fps= 17 q=0.0 size=       0kB time=00:00:00.00 bitrate=N/A speed=   0x    frame=   36 fps= 17 q=0.0 size=       0kB time=00:00:00.00 bitrate=N/A speed=   0x    frame=   45 fps= 17 q=0.0 size=       0kB time=00:00:00.00 bitrate=N/A speed=   0x    frame=   54 fps= 17 q=0.0 size=       0kB time=00:00:00.00 bitrate=N/A speed=   0x    frame=   57 fps=9.4 q=0.0 size=       0kB time=00:00:00.00 bitrate=N/A speed=   0x    frame=   58 fps=6.2 q=0.0 size=       0kB time=00:00:00.00 bitrate=N/A speed=   0x    frame=   59 fps=5.0 q=0.0 size=       0kB time=00:00:00.00 bitrate=N/A speed=   0x    frame=   65 fps=5.2 q=42.0 size=       1kB time=00:00:00.08 bitrate=  69.9kbits/s speed=0.00671x    frame=   67 fps=5.1 q=55.0 size=       1kB time=00:00:00.16 bitrate=  35.0kbits/s speed=0.0129x    frame=   71 fps=5.2 q=55.0 size=       1kB time=00:00:00.33 bitrate=  17.6kbits/s speed=0.0246x    frame=   76 fps=5.3 q=55.0 size=       1kB time=00:00:00.54 bitrate=  10.8kbits/s speed=0.0381x    frame=   82 fps=5.5 q=56.0 size=       1kB time=00:00:00.79 bitrate=   7.4kbits/s speed=0.0534x    frame=   87 fps=5.7 q=56.0 size=       1kB time=00:00:01.00 bitrate=   5.9kbits/s speed=0.0651x    frame=   92 fps=5.8 q=55.0 size=       1kB time=00:00:01.20 bitrate=   4.9kbits/s speed=0.0759x    frame=   97 fps=5.9 q=55.0 size=       1kB time=00:00:01.41 bitrate=   4.1kbits/s speed=0.086x    frame=  101 fps=5.9 q=55.0 size=       1kB time=00:00:01.58 bitrate=   3.7kbits/s speed=0.0933x    frame=  108 fps=6.2 q=54.0 size=       1kB time=00:00:01.87 bitrate=   3.1kbits/s speed=0.107x    frame=  112 fps=6.2 q=54.0 size=       1kB time=00:00:02.04 bitrate=   2.9kbits/s speed=0.113x    frame=  116 fps=6.2 q=54.0 size=       1kB time=00:00:02.20 bitrate=   2.7kbits/s speed=0.119x    frame=  121 fps=6.3 q=54.0 size=       1kB time=00:00:02.41 bitrate=   2.4kbits/s speed=0.126x    frame=  125 fps=6.3 q=54.0 size=       1kB time=00:00:02.58 bitrate=   2.3kbits/s speed=0.131x    frame=  127 fps=6.3 q=54.0 size=       1kB time=00:00:02.66 bitrate=   2.2kbits/s speed=0.132x    frame=  133 fps=6.4 q=54.0 size=       1kB time=00:00:02.91 bitrate=   2.0kbits/s speed=0.14x    frame=  137 fps=6.4 q=54.0 size=       1kB time=00:00:03.08 bitrate=   1.9kbits/s speed=0.143x    frame=  141 fps=6.4 q=54.0 size=       1kB time=00:00:03.25 bitrate=   1.8kbits/s speed=0.147x    frame=  145 fps=6.4 q=55.0 size=       1kB time=00:00:03.41 bitrate=   1.7kbits/s speed=0.151x    frame=  148 fps=6.4 q=55.0 size=       1kB time=00:00:03.54 bitrate=   1.7kbits/s speed=0.152x    frame=  152 fps=6.4 q=52.0 size=       1kB time=00:00:03.70 bitrate=   1.6kbits/s speed=0.155x    frame=  157 fps=6.4 q=55.0 size=    1177kB time=00:00:03.91 bitrate=2460.3kbits/s speed=0.161x    frame=  163 fps=6.5 q=55.0 size=    1177kB time=00:00:04.16 bitrate=2312.8kbits/s speed=0.167x    frame=  171 fps=6.7 q=52.0 size=    1177kB time=00:00:04.50 bitrate=2141.7kbits/s speed=0.175x    frame=  176 fps=6.7 q=54.0 size=    1177kB time=00:00:04.70 bitrate=2047.1kbits/s speed=0.179x    frame=  184 fps=6.9 q=54.0 size=    1177kB time=00:00:05.04 bitrate=1911.5kbits/s speed=0.188x    frame=  187 fps=6.8 q=54.0 size=    1177kB time=00:00:05.16 bitrate=1865.3kbits/s speed=0.189x    frame=  192 fps=6.9 q=54.0 size=    1177kB time=00:00:05.37 bitrate=1793.1kbits/s speed=0.192x    frame=  196 fps=6.9 q=55.0 size=    1177kB time=00:00:05.54 bitrate=1739.1kbits/s speed=0.194x    frame=  202 fps=6.9 q=55.0 size=    1177kB time=00:00:05.79 bitrate=1664.0kbits/s speed=0.199x    frame=  207 fps=7.0 q=55.0 size=    1177kB time=00:00:06.00 bitrate=1606.3kbits/s speed=0.202x    frame=  212 fps=7.0 q=52.0 size=    1177kB time=00:00:06.20 bitrate=1552.5kbits/s speed=0.205x    frame=  222 fps=7.2 q=55.0 size=    1786kB time=00:00:06.62 bitrate=2207.8kbits/s speed=0.215x    frame=  225 fps=7.2 q=55.0 size=    1786kB time=00:00:06.75 bitrate=2166.9kbits/s speed=0.215x    frame=  231 fps=7.2 q=55.0 size=    1786kB time=00:00:07.00 bitrate=2089.5kbits/s speed=0.218x    frame=  236 fps=7.2 q=55.0 size=    1786kB time=00:00:07.20 bitrate=2029.2kbits/s speed=0.221x    frame=  240 fps=7.2 q=55.0 size=    1786kB time=00:00:07.37 bitrate=1983.3kbits/s speed=0.222x    frame=  247 fps=7.3 q=54.0 size=    2030kB time=00:00:07.66 bitrate=2169.2kbits/s speed=0.228x    frame=  253 fps=7.4 q=54.0 size=    2030kB time=00:00:07.91 bitrate=2100.7kbits/s speed=0.231x    frame=  259 fps=7.4 q=54.0 size=    2030kB time=00:00:08.16 bitrate=2036.4kbits/s speed=0.234x    frame=  263 fps=7.4 q=54.0 size=    2030kB time=00:00:08.33 bitrate=1995.9kbits/s speed=0.236x    frame=  267 fps=7.4 q=54.0 size=    2030kB time=00:00:08.50 bitrate=1956.7kbits/s speed=0.237x    frame=  275 fps=7.5 q=54.0 size=    2030kB time=00:00:08.83 bitrate=1882.9kbits/s speed=0.242x    frame=  282 fps=7.6 q=54.0 size=    2030kB time=00:00:09.12 bitrate=1822.7kbits/s speed=0.247x    frame=  287 fps=7.7 q=54.0 size=    2030kB time=00:00:09.33 bitrate=1782.0kbits/s speed=0.249x    frame=  294 fps=7.7 q=53.0 size=    2030kB time=00:00:09.62 bitrate=1728.0kbits/s speed=0.253x    frame=  301 fps=7.8 q=53.0 size=    2030kB time=00:00:09.91 bitrate=1677.1kbits/s speed=0.257x    frame=  309 fps=7.9 q=53.0 size=    2030kB time=00:00:10.25 bitrate=1622.6kbits/s speed=0.262x    frame=  315 fps=7.9 q=53.0 size=    2030kB time=00:00:10.50 bitrate=1584.0kbits/s speed=0.265x    frame=  322 fps=7.9 q=53.0 size=    2030kB time=00:00:10.79 bitrate=1541.1kbits/s speed=0.264x    frame=  331 fps=8.0 q=52.0 size=    2624kB time=00:00:11.16 bitrate=1924.8kbits/s speed=0.269x    frame=  340 fps=8.1 q=52.0 size=    2624kB time=00:00:11.54 bitrate=1862.3kbits/s speed=0.274x    frame=  348 fps=8.2 q=52.0 size=    2624kB time=00:00:11.87 bitrate=1810.1kbits/s speed=0.278x    frame=  359 fps=8.3 q=51.0 size=    2624kB time=00:00:12.33 bitrate=1742.9kbits/s speed=0.286x    frame=  369 fps=8.4 q=51.0 size=    2624kB time=00:00:12.75 bitrate=1685.9kbits/s speed=0.291x    frame=  379 fps=8.5 q=50.0 size=    2624kB time=00:00:13.16 bitrate=1632.5kbits/s speed=0.297x    frame=  388 fps=8.6 q=50.0 size=    2624kB time=00:00:13.54 bitrate=1587.3kbits/s speed=0.302x    frame=  397 fps=8.7 q=49.0 size=    2624kB time=00:00:13.91 bitrate=1544.5kbits/s speed=0.306x    frame=  404 fps=8.8 q=49.0 size=    2624kB time=00:00:14.20 bitrate=1512.9kbits/s speed=0.309x    frame=  412 fps=8.9 q=49.0 size=    2624kB time=00:00:14.54 bitrate=1478.1kbits/s speed=0.313x    frame=  418 fps=8.9 q=46.0 size=    2624kB time=00:00:14.79 bitrate=1453.2kbits/s speed=0.315x    frame=  427 fps=9.0 q=48.0 size=    3088kB time=00:00:15.16 bitrate=1667.6kbits/s speed=0.319x    frame=  432 fps=9.0 q=48.0 size=    3088kB time=00:00:15.37 bitrate=1645.0kbits/s speed=0.32x    frame=  440 fps=9.0 q=48.0 size=    3088kB time=00:00:15.70 bitrate=1610.2kbits/s speed=0.322x    frame=  449 fps=9.1 q=47.0 size=    3088kB time=00:00:16.08 bitrate=1572.6kbits/s speed=0.326x    frame=  455 fps=9.1 q=47.0 size=    3088kB time=00:00:16.33 bitrate=1548.5kbits/s speed=0.327x    frame=  461 fps=9.1 q=47.0 size=    3088kB time=00:00:16.58 bitrate=1525.2kbits/s speed=0.328x    frame=  468 fps=9.2 q=47.0 size=    3088kB time=00:00:16.87 bitrate=1498.8kbits/s speed=0.33x    frame=  476 fps=9.2 q=47.0 size=    3088kB time=00:00:17.20 bitrate=1469.8kbits/s speed=0.334x    frame=  484 fps=9.3 q=47.0 size=    3546kB time=00:00:17.54 bitrate=1655.6kbits/s speed=0.336x    frame=  492 fps=9.3 q=47.0 size=    3546kB time=00:00:17.87 bitrate=1624.8kbits/s speed=0.338x    frame=  499 fps=9.3 q=47.0 size=    3546kB time=00:00:18.16 bitrate=1598.7kbits/s speed=0.34x    frame=  500 fps=8.8 q=-1.0 Lsize=    4135kB time=00:00:20.70 bitrate=1635.6kbits/s speed=0.365x    
video:4130kB audio:0kB subtitle:0kB other streams:0kB global headers:0kB muxing overhead: 0.107507%
bench: utime=170.256s
bench: maxrss=1813492kB
[libx264 @ 0x3bdf120] frame I:8     Avg QP:42.24  size: 29631
[libx264 @ 0x3bdf120] frame P:269   Avg QP:47.63  size: 10597
[libx264 @ 0x3bdf120] frame B:223   Avg QP:46.06  size:  5117
[libx264 @ 0x3bdf120] consecutive B-frames: 37.0%  8.4%  6.6% 48.0%
[libx264 @ 0x3bdf120] mb I  I16..4: 29.8% 69.9%  0.4%
[libx264 @ 0x3bdf120] mb P  I16..4: 11.3% 24.5%  0.0%  P16..4:  5.9%  0.2%  0.2%  0.0%  0.0%    skip:57.9%
[libx264 @ 0x3bdf120] mb B  I16..4:  0.6%  0.6%  0.0%  B16..8: 14.5%  0.2%  0.0%  direct: 0.2%  skip:83.8%  L0:42.0% L1:57.5% BI: 0.5%
[libx264 @ 0x3bdf120] final ratefactor: 44.57
[libx264 @ 0x3bdf120] 8x8 transform intra:68.1% inter:97.9%
[libx264 @ 0x3bdf120] direct mvs  spatial:98.7% temporal:1.3%
[libx264 @ 0x3bdf120] coded y,uvDC,uvAC intra: 1.5% 13.7% 0.0% inter: 0.2% 0.8% 0.0%
[libx264 @ 0x3bdf120] i16 v,h,dc,p: 50% 35%  3% 12%
[libx264 @ 0x3bdf120] i8 v,h,dc,ddl,ddr,vr,hd,vl,hu:  9%  4% 85%  0%  0%  0%  0%  0%  0%
[libx264 @ 0x3bdf120] i4 v,h,dc,ddl,ddr,vr,hd,vl,hu: 12%  9%  8% 18% 18%  9% 12%  5%  9%
[libx264 @ 0x3bdf120] i8c dc,h,v,p: 96%  2%  1%  0%
[libx264 @ 0x3bdf120] Weighted P-Frames: Y:1.1% UV:0.7%
[libx264 @ 0x3bdf120] ref P L0: 51.5%  2.6% 24.2%  8.6%  8.7%  4.3%
[libx264 @ 0x3bdf120] ref B L0: 80.8% 11.9%  6.3%  1.0%
[libx264 @ 0x3bdf120] ref B L1: 95.7%  4.3%
[libx264 @ 0x3bdf120] kb/s:1623.86
